# xmcd CD database file
#
# Track frame offsets:
#	150
#	13594
#	26178
#	38092
#	50850
#	63540
#	76504
#	97499
#	111128
#	123405
#	135796
#	151245
#	162605
#	174617
#	188002
#	197857
#	210430
#
# Disc length: 2995 seconds
#
# Revision: 0
# Processed by: cddbd v1.5.2PL0 Copyright (c) Steve Scherf et al.
# Submitted via: CDex 1.51
#
DISCID=e80bb111
DTITLE=Brendan Quinn - Irish Country Music
DYEAR=2004
DGENRE=Country
TTITLE0=After Sweet Memories
TTITLE1=Bandy - The Rodeo Clown
TTITLE2=Daddy's Little Girl
TTITLE3=A Mother's Love's A Blessing
TTITLE4=Almost Persuaded
TTITLE5=Ruby Don't Take Your Love To Town
TTITLE6=How Great Thou Art
TTITLE7=I Can Almost See My Home Town From Here
TTITLE8=Cowboys Ain't Supposed To Cry
TTITLE9=Fool Enough To Give It One More Time
TTITLE10=Lucille
TTITLE11=I'll Bet All My Love On You
TTITLE12=Judy And Me
TTITLE13=Maggie
TTITLE14=My Wild Irish Rose
TTITLE15=Most Of All Why
TTITLE16=Rollin' In The Aisles
EXTD=YEAR: 2004
EXTT0=
EXTT1=
EXTT2=
EXTT3=
EXTT4=
EXTT5=
EXTT6=
EXTT7=
EXTT8=
EXTT9=
EXTT10=
EXTT11=
EXTT12=
EXTT13=
EXTT14=
EXTT15=
EXTT16=
PLAYORDER=
